<svg width="120" height="28" viewBox="0 0 120 28" fill="none" xmlns="http://www.w3.org/2000/svg">
<path d="M19.492 13.896C20.932 14.352 22.06 15.12 22.876 16.2C23.692 17.256 24.1 18.564 24.1 20.124C24.1 22.332 23.236 24.036 21.508 25.236C19.804 26.412 17.308 27 14.02 27H0.988V1.8H13.3C16.372 1.8 18.724 2.388 20.356 3.564C22.012 4.74 22.84 6.336 22.84 8.352C22.84 9.576 22.54 10.668 21.94 11.628C21.364 12.588 20.548 13.344 19.492 13.896ZM6.784 6.192V12.132H12.58C14.02 12.132 15.112 11.88 15.856 11.376C16.6 10.872 16.972 10.128 16.972 9.144C16.972 8.16 16.6 7.428 15.856 6.948C15.112 6.444 14.02 6.192 12.58 6.192H6.784ZM13.588 22.608C15.124 22.608 16.276 22.356 17.044 21.852C17.836 21.348 18.232 20.568 18.232 19.512C18.232 17.424 16.684 16.38 13.588 16.38H6.784V22.608H13.588ZM37.3353 27.288C35.2953 27.288 33.4593 26.868 31.8273 26.028C30.2193 25.164 28.9593 23.976 28.0473 22.464C27.1353 20.952 26.6793 19.236 26.6793 17.316C26.6793 15.396 27.1353 13.68 28.0473 12.168C28.9593 10.656 30.2193 9.48 31.8273 8.64C33.4593 7.776 35.2953 7.344 37.3353 7.344C39.3753 7.344 41.1993 7.776 42.8073 8.64C44.4153 9.48 45.6753 10.656 46.5873 12.168C47.4993 13.68 47.9553 15.396 47.9553 17.316C47.9553 19.236 47.4993 20.952 46.5873 22.464C45.6753 23.976 44.4153 25.164 42.8073 26.028C41.1993 26.868 39.3753 27.288 37.3353 27.288ZM37.3353 22.68C38.7753 22.68 39.9513 22.2 40.8633 21.24C41.7993 20.256 42.2673 18.948 42.2673 17.316C42.2673 15.684 41.7993 14.388 40.8633 13.428C39.9513 12.444 38.7753 11.952 37.3353 11.952C35.8953 11.952 34.7073 12.444 33.7713 13.428C32.8353 14.388 32.3673 15.684 32.3673 17.316C32.3673 18.948 32.8353 20.256 33.7713 21.24C34.7073 22.2 35.8953 22.68 37.3353 22.68ZM59.2048 7.344C62.2048 7.344 64.5088 8.064 66.1168 9.504C67.7248 10.92 68.5288 13.068 68.5288 15.948V27H63.2728V24.588C62.2168 26.388 60.2488 27.288 57.3688 27.288C55.8808 27.288 54.5848 27.036 53.4808 26.532C52.4008 26.028 51.5728 25.332 50.9968 24.444C50.4208 23.556 50.1328 22.548 50.1328 21.42C50.1328 19.62 50.8048 18.204 52.1488 17.172C53.5168 16.14 55.6168 15.624 58.4488 15.624H62.9128C62.9128 14.4 62.5408 13.464 61.7968 12.816C61.0528 12.144 59.9368 11.808 58.4488 11.808C57.4168 11.808 56.3968 11.976 55.3888 12.312C54.4048 12.624 53.5648 13.056 52.8688 13.608L50.8528 9.684C51.9088 8.94 53.1688 8.364 54.6328 7.956C56.1208 7.548 57.6448 7.344 59.2048 7.344ZM58.7728 23.508C59.7328 23.508 60.5848 23.292 61.3288 22.86C62.0728 22.404 62.6008 21.744 62.9128 20.88V18.9H59.0608C56.7568 18.9 55.6048 19.656 55.6048 21.168C55.6048 21.888 55.8808 22.464 56.4328 22.896C57.0088 23.304 57.7888 23.508 58.7728 23.508ZM78.9755 10.188C79.6475 9.252 80.5475 8.544 81.6755 8.064C82.8275 7.584 84.1475 7.344 85.6355 7.344V12.528C85.0115 12.48 84.5915 12.456 84.3755 12.456C82.7675 12.456 81.5075 12.912 80.5955 13.824C79.6835 14.712 79.2275 16.056 79.2275 17.856V27H73.6115V7.632H78.9755V10.188ZM108.527 0.287998V27H103.163V24.768C101.771 26.448 99.755 27.288 97.115 27.288C95.291 27.288 93.635 26.88 92.147 26.064C90.683 25.248 89.531 24.084 88.691 22.572C87.851 21.06 87.431 19.308 87.431 17.316C87.431 15.324 87.851 13.572 88.691 12.06C89.531 10.548 90.683 9.384 92.147 8.568C93.635 7.752 95.291 7.344 97.115 7.344C99.587 7.344 101.519 8.124 102.911 9.684V0.287998H108.527ZM98.087 22.68C99.503 22.68 100.679 22.2 101.615 21.24C102.551 20.256 103.019 18.948 103.019 17.316C103.019 15.684 102.551 14.388 101.615 13.428C100.679 12.444 99.503 11.952 98.087 11.952C96.647 11.952 95.459 12.444 94.523 13.428C93.587 14.388 93.119 15.684 93.119 17.316C93.119 18.948 93.587 20.256 94.523 21.24C95.459 22.2 96.647 22.68 98.087 22.68ZM115.849 27.288C114.865 27.288 114.037 26.952 113.365 26.28C112.693 25.608 112.357 24.768 112.357 23.76C112.357 22.728 112.693 21.9 113.365 21.276C114.037 20.628 114.865 20.304 115.849 20.304C116.833 20.304 117.661 20.628 118.333 21.276C119.005 21.9 119.341 22.728 119.341 23.76C119.341 24.768 119.005 25.608 118.333 26.28C117.661 26.952 116.833 27.288 115.849 27.288Z" fill="white"/>
</svg>
